<svg width="24" height="24" viewBox="0 0 512 512" fill="none" xmlns="http://www.w3.org/2000/svg">
<g clip-path="url(#clip0_1_3)">
<path d="M399 384.2C376.9 345.8 335.4 320 288 320H224C176.6 320 135.1 345.8 113 384.2C148.2 423.4 199.2 448 256 448C312.8 448 363.8 423.3 399 384.2ZM512 256C512 397.4 397.4 512 256 512C114.6 512 0 397.4 0 256C0 114.6 114.6 0 256 0C397.4 0 512 114.6 512 256ZM256 272C295.8 272 328 239.8 328 200C328 160.2 295.8 128 256 128C216.2 128 184 160.2 184 200C184 239.8 216.2 272 256 272Z" fill="black"/>
</g>
<defs>
<clipPath id="clip0_1_3">
<rect width="512" height="512" fill="white"/>
</clipPath>
</defs>
</svg>
